<svg version="1.1" fill="#FF0000" id="Calque_1" xmlns="http://www.w3.org/2000/svg" xmlns:xlink="http://www.w3.org/1999/xlink" x="0px" y="0px"
	viewBox="0 0 700 700" style="enable-background:new 0 0 700 700;" xml:space="preserve">
	<g>
		<path d="M186.9,168.5c12.4-11.2,18-28.1,14.7-44.4s-14.9-29.8-30.7-35.3c-15.8-5.5-33.3-2.4-46,8.4c-53,46-90.6,107-107.8,175
		c-17.2,68-13.3,139.6,11.4,205.2C53.1,543,97.3,599.5,155,639.3c57.7,39.8,126.3,61,196.4,60.7c70.1-0.3,138.5-22,195.9-62.3
		c57.4-40.3,101.1-97.1,125.2-163c24.1-65.8,27.5-137.5,9.8-205.3c-17.8-67.8-55.9-128.6-109.2-174.1c-12.8-11-30.6-14.3-46.5-8.6
		c-15.9,5.6-27.6,19.3-30.7,36c-3.1,16.6,2.9,33.6,15.8,44.6c27.4,23.4,49.4,52.4,64.4,85.1s22.9,68.3,22.9,104.3
		c0,137.2-111.7,248.9-248.9,248.9c-137.2,0-248.9-111.7-248.9-249c0-35.7,7.7-70.9,22.5-103.3C138.3,220.7,159.9,191.8,186.9,168.5
		L186.9,168.5z"/>
		<path d="M397.3,378.7V47.3c0-16.9-9-32.5-23.6-41c-14.6-8.4-32.7-8.4-47.3,0c-14.6,8.5-23.6,24.1-23.6,41v331.4
		c0,16.9,9,32.5,23.6,41c14.6,8.4,32.7,8.4,47.3,0C388.3,411.2,397.3,395.6,397.3,378.7z"/>
	</g>
</svg>
