<?xml version="1.0" encoding="utf-8"?>
<!-- Generator: Adobe Illustrator 25.3.0, SVG Export Plug-In . SVG Version: 6.00 Build 0)  -->
<svg version="1.1" id="Calque_1" xmlns="http://www.w3.org/2000/svg" xmlns:xlink="http://www.w3.org/1999/xlink" x="0px" y="0px"
	 viewBox="0 0 700 700" style="enable-background:new 0 0 700 700;" xml:space="preserve">
<g>
	<path d="M163.8,700H54.9c-30.2,0-54.7-24.5-54.7-54.7l0-328c0-30.2,24.5-54.7,54.7-54.7h108.8c30.2,0,54.7,24.6,54.7,54.7v328
		C218.5,675.5,194,700,163.8,700L163.8,700z M54.9,306.2c-6,0-11,4.9-11,11v328c0,6,4.9,11,11,11h108.8c6.1,0,11-4.9,11-11v-328
		c0-6.1-4.9-11-11-11L54.9,306.2z"/>
	<path d="M564.7,700H299.6c-13.5,0-27-3.2-39.1-9.2l-73.7-36.8c-10.8-5.4-15.2-18.5-9.8-29.4c5.4-10.8,18.5-15.2,29.4-9.8l73.7,36.8
		c6,3,12.8,4.6,19.5,4.6h265.1c8,0,15.4-4.3,19.4-11.3l24.7-43.2c30.9-54,47.2-115.5,47.2-177.7v-74c0-24.1-19.6-43.8-43.8-43.8
		H447.6c-14.5,0-28-7.2-36.2-19.2c-8.1-12-9.8-27.2-4.4-40.7c20.1-50.1,30.2-103,30.2-157V64c0-11.2-9.1-20.3-20.3-20.3h-13.6
		c-9,0-17,6-19.5,14.7l-8.6,30c-18.4,64.2-48.8,123.3-90.6,175.5c-21.5,26.9-53.6,42.4-88.1,42.4H131c-12.1,0-21.9-9.8-21.9-21.9
		s9.8-21.9,21.9-21.9h65.6c21.1,0,40.8-9.5,54-26c38.1-47.6,65.9-101.5,82.7-160.1l8.6-30C349.7,19.1,375,0,403.4,0H417
		c35.3,0,64,28.7,64,64v25.4c0,59.7-11.2,117.9-33.4,173.3l164.6-0.1c48.3,0,87.5,39.3,87.5,87.5v74c0,69.8-18.3,138.8-53,199.4
		l-24.7,43.2C610.4,687.2,588.4,700,564.7,700L564.7,700z"/>
	<path d="M131,590.6c0,12.1-9.8,21.9-21.9,21.9s-21.9-9.8-21.9-21.9c0-12.1,9.8-21.9,21.9-21.9S131,578.5,131,590.6"/>
</g>
</svg>
