<svg version="1.1" fill="#FF0000" id="Calque_1" xmlns="http://www.w3.org/2000/svg" xmlns:xlink="http://www.w3.org/1999/xlink" x="0px" y="0px"
	viewBox="0 0 700 700" style="enable-background:new 0 0 700 700;" xml:space="preserve">
	<g>
		<path d="M492.2,374.3c43.3-38.8,69-93.5,71.2-151.6c2.2-58.1-19.4-114.6-59.8-156.4c-40.3-41.9-96-65.5-154.1-65.5
		S235.8,24.5,195.4,66.3c-40.3,41.9-61.9,98.3-59.8,156.4c2.2,58.1,27.9,112.8,71.2,151.6c-59.8,20.9-111.6,59.9-148.2,111.5
		C21.9,537.5,2.2,599.2,2.1,662.6c0,13.1,7,25.2,18.3,31.7c11.3,6.5,25.3,6.5,36.6,0c11.3-6.5,18.3-18.6,18.3-31.7
		c0.1-61.7,24.6-120.8,68.2-164.4s102.7-68.1,164.4-68.2h84.2c61.7,0.1,120.8,24.6,164.4,68.2c43.6,43.6,68.1,102.7,68.2,164.4
		c0,13.1,7,25.2,18.3,31.7c11.3,6.5,25.3,6.5,36.6,0c11.3-6.5,18.3-18.6,18.3-31.7c-0.1-63.4-20-125.3-56.9-176.9
		S552.1,395.1,492.2,374.3L492.2,374.3z M349.5,75.9c37.1,0,72.8,14.8,99,41c26.3,26.3,41,61.9,41,99s-14.8,72.8-41,99
		c-26.3,26.3-61.9,41-99,41s-72.8-14.8-99-41c-26.3-26.3-41-61.9-41-99s14.8-72.8,41-99C276.8,90.7,312.4,75.9,349.5,75.9z"/>
	</g>
</svg>
