<?xml version="1.0" encoding="utf-8"?>
<!-- Generator: Adobe Illustrator 25.3.0, SVG Export Plug-In . SVG Version: 6.00 Build 0)  -->
<svg version="1.1" id="Calque_1" xmlns="http://www.w3.org/2000/svg" xmlns:xlink="http://www.w3.org/1999/xlink" x="0px" y="0px"
	 viewBox="0 0 700 700" style="enable-background:new 0 0 700 700;" xml:space="preserve">
<g>
	<path d="M178.2,673.4c-7.8,5.5-17.3,8-26.8,6.9c-9.5-1.1-18.3-5.5-24.6-12.6c-6.4-7.1-10-16.3-10-25.8v-79.7l-77.8,0
		C17.4,562.1,0,544.7,0,523.4V58.3c0-21.4,17.4-38.8,38.9-38.8h622.2c21.5,0,38.9,17.3,38.9,38.8v465.1c0,21.4-17.4,38.7-38.9,38.7
		l-326.7,0L178.2,673.4z M661.1,58.4H38.9v464.8h116.7v118.5L322,523.2h339.1V58.4z M116.7,175h466.7v38.9H116.7V175z M116.7,330.6
		H350v38.9H116.7V330.6z"/>
</g>
</svg>
