<svg width="700pt" height="700pt" version="1.1" viewBox="0 0 700 700" xmlns="http://www.w3.org/2000/svg" fill="#000">
    <g>
        <path d="m201.21 560h-87.078c-24.133 0-43.766-19.637-43.766-43.785l-0.003906-262.43c0-24.133 19.637-43.785 43.77-43.785h87.078c24.133 0 43.785 19.652 43.785 43.785v262.43c0 24.148-19.652 43.785-43.785 43.785zm-87.078-315c-4.8281 0-8.7656 3.9375-8.7656 8.7852v262.43c-0.003906 4.832 3.9336 8.7852 8.7656 8.7852h87.078c4.8477 0 8.7852-3.9531 8.7852-8.7852v-262.43c0-4.8477-3.9375-8.7852-8.7852-8.7852z" />
        <path d="m521.97 560h-212.1c-10.797 0-21.594-2.5547-31.273-7.3867l-58.941-29.469c-8.6445-4.3242-12.145-14.84-7.8242-23.484 4.3242-8.6445 14.824-12.145 23.484-7.8242l58.941 29.469c4.8359 2.418 10.227 3.6953 15.613 3.6953h212.1c6.3867 0 12.336-3.4492 15.523-9.0117l19.758-34.578c24.691-43.211 37.746-92.387 37.746-142.16v-59.219c0-19.32-15.715-35.035-35.035-35.035h-131.72c-11.602 0-22.418-5.7383-28.926-15.348-6.4922-9.6094-7.8047-21.789-3.5-32.551 16.047-40.109 24.184-82.371 24.184-125.61v-20.285c0-8.9219-7.2617-16.203-16.203-16.203h-10.887c-7.1914 0-13.598 4.8281-15.574 11.742l-6.8594 23.992c-14.699 51.398-39.078 98.613-72.469 140.37-17.219 21.543-42.91 33.898-70.508 33.898h-52.5c-9.6602 0-17.5-7.8398-17.5-17.5s7.8398-17.5 17.5-17.5h52.5c16.887 0 32.637-7.5781 43.191-20.773 30.469-38.113 52.727-81.219 66.133-128.12l6.8594-23.992c6.2461-21.84 26.492-37.117 49.227-37.117h10.887c28.242 0 51.203 22.961 51.203 51.203v20.281c0 47.723-8.9961 94.359-26.688 138.62l131.65-0.10156c38.621 0 70.035 31.414 70.035 70.035v59.219c0 55.859-14.648 111.04-42.367 159.53l-19.758 34.578c-9.3984 16.434-26.984 26.637-45.902 26.637z" />
        <path d="m175 472.5c0 9.6641-7.8359 17.5-17.5 17.5s-17.5-7.8359-17.5-17.5 7.8359-17.5 17.5-17.5 17.5 7.8359 17.5 17.5" />
    </g>
</svg>
